<svg xmlns="http://www.w3.org/2000/svg" version="1.1" xmlns:xlink="http://www.w3.org/1999/xlink" xmlns:svgjs="http://svgjs.dev/svgjs" width="2000" height="1999" viewBox="0 0 2000 1999"><g transform="matrix(1,0,0,1,-0.431486880466764,-0.4312711370263287)"><svg viewBox="0 0 343 343" data-background-color="#ffffff" preserveAspectRatio="xMidYMid meet" height="1999" width="2000" xmlns="http://www.w3.org/2000/svg" xmlns:xlink="http://www.w3.org/1999/xlink"><g id="tight-bounds" transform="matrix(1,0,0,1,0.0740000000000407,0.07400000000001228)"><svg viewBox="0 0 342.85155851775386 342.85155851775386" height="342.85155851775386" width="342.85155851775386"><g><svg></svg></g><g><svg viewBox="0 0 342.85155851775386 342.85155851775386" height="342.85155851775386" width="342.85155851775386"><g><path d="M0 171.426c0-94.676 76.75-171.426 171.426-171.426 94.676 0 171.426 76.75 171.426 171.426 0 94.676-76.75 171.426-171.426 171.426-94.676 0-171.426-76.75-171.426-171.426zM171.426 328.367c86.676 0 156.941-70.265 156.941-156.941 0-86.676-70.265-156.941-156.941-156.942-86.676 0-156.941 70.265-156.942 156.942 0 86.676 70.265 156.941 156.942 156.941z" data-fill-palette-color="tertiary" fill="#ee3e38" stroke="transparent"></path><ellipse rx="164.56874808852186" ry="164.56874808852186" cx="171.42577925887693" cy="171.42577925887693" fill="#ee3e38" stroke="transparent" stroke-width="0" fill-opacity="1" data-fill-palette-color="tertiary"></ellipse></g><g transform="matrix(1,0,0,1,64.84655864529837,91.11818725592838)"><svg viewBox="0 0 213.1584412271571 160.6151840058971" height="160.6151840058971" width="213.1584412271571"><g><svg viewBox="0 0 213.1584412271571 160.6151840058971" height="160.6151840058971" width="213.1584412271571"><g><svg viewBox="0 0 213.1584412271571 160.6151840058971" height="160.6151840058971" width="213.1584412271571"><g><svg viewBox="0 0 213.1584412271571 160.6151840058971" height="160.6151840058971" width="213.1584412271571"><g id="textblocktransform"><svg viewBox="0 0 213.1584412271571 160.6151840058971" height="160.6151840058971" width="213.1584412271571" id="textblock"><g><svg viewBox="0 0 213.1584412271571 160.6151840058971" height="160.6151840058971" width="213.1584412271571"><g transform="matrix(1,0,0,1,0,0)"><svg width="213.1584412271571" viewBox="-3.700000047683716 -36 53.54999923706055 40.349998474121094" height="160.6151840058971" data-palette-color="#ffffff"><path d="M19.85 4.35L19.85 4.35Q18.05 4.35 15.88 3.6 13.7 2.85 11.4 1.78 9.1 0.7 6.85-0.3L6.85-0.3Q5.6 1.1 4.25 1.88 2.9 2.65 1.3 2.65L1.3 2.65Q-0.3 2.65-1.43 1.9-2.55 1.15-3.13 0.13-3.7-0.9-3.7-1.7L-3.7-1.7Q-3.7-2.6-2.88-3.25-2.05-3.9-0.05-3.9L-0.05-3.9Q1.25-3.9 2.83-3.6 4.4-3.3 6.1-2.85L6.1-2.85Q7.3-4.95 8.33-7.75 9.35-10.55 10.35-13.7 11.35-16.85 12.35-20L12.35-20Q10.05-20.75 8.72-22.2 7.4-23.65 7.4-25.35L7.4-25.35Q7.4-26.25 7.78-27.15 8.15-28.05 8.85-28.68 9.55-29.3 10.5-29.3L10.5-29.3Q10.15-28.8 10-27.85 9.85-26.9 9.85-26.2L9.85-26.2Q9.85-24.3 10.65-23.03 11.45-21.75 12.7-21.05L12.7-21.05Q13.7-24.05 14.78-26.73 15.85-29.4 17.15-31.5 18.45-33.6 20-34.8 21.55-36 23.45-36L23.45-36Q24.45-36 25.58-35.55 26.7-35.1 27.5-34 28.3-32.9 28.3-30.9L28.3-30.9Q28.3-29.2 27.6-27.23 26.9-25.25 25.45-23.48 24-21.7 21.75-20.58 19.5-19.45 16.45-19.4L16.45-19.4Q16.4-19.4 16.23-19.4 16.05-19.4 15.5-19.4L15.5-19.4Q14.5-16.35 13.38-13.2 12.25-10.05 11-7.23 9.75-4.4 8.3-2.2L8.3-2.2Q10.6-1.5 12.95-0.78 15.3-0.05 17.5 0.43 19.7 0.9 21.55 0.9L21.55 0.9Q22.6 0.9 23.45 0.7 24.3 0.5 25.1 0.1L25.1 0.1Q24.3 2.4 22.98 3.38 21.65 4.35 19.85 4.35ZM1.1 1.2L1.1 1.2Q2.2 1.2 3.18 0.6 4.15 0 4.95-1.1L4.95-1.1Q3.4-1.75 1.93-2.18 0.45-2.6-0.75-2.6L-0.75-2.6Q-1.7-2.6-2.05-2.35-2.4-2.1-2.4-1.65L-2.4-1.65Q-2.4-0.8-1.43 0.2-0.45 1.2 1.1 1.2ZM15.8-20.35L15.8-20.35Q18.05-20.35 19.88-21.63 21.7-22.9 22.98-24.83 24.25-26.75 24.93-28.75 25.6-30.75 25.6-32.25L25.6-32.25Q25.6-33.7 25.05-34.23 24.5-34.75 23.8-34.75L23.8-34.75Q22.25-34.75 20.9-32.75 19.55-30.75 18.32-27.48 17.1-24.2 15.8-20.35ZM33.15 3.65L33.15 3.65Q30.55 3.65 29.27 1.95 28 0.25 28-2.65L28-2.65Q28-5.15 28.85-8.55 29.7-11.95 31.1-15.68 32.5-19.4 34.22-22.95 35.95-26.5 37.7-29.38 39.45-32.25 41-33.98 42.55-35.7 43.55-35.7L43.55-35.7Q44.4-35.7 44.77-34.65 45.15-33.6 45.15-32.55L45.15-32.55Q45.15-31.15 44.55-29.15 43.95-27.15 42.85-24.88 41.75-22.6 40.3-20.4 38.85-18.2 37.17-16.38 35.5-14.55 33.75-13.5L33.75-13.5Q33.45-12.95 32.87-11.23 32.3-9.5 31.82-7.28 31.35-5.05 31.35-2.95L31.35-2.95Q31.35-0.9 31.97 0.43 32.6 1.75 34.1 1.75L34.1 1.75Q35.55 1.75 37.1 0.58 38.65-0.6 39.6-2.45L39.6-2.45Q37.75-3.4 36.85-5.23 35.95-7.05 35.95-8.9L35.95-8.9Q35.95-11.3 37.2-12.75 38.45-14.2 40.15-14.2L40.15-14.2Q41.6-14.2 42.45-13.03 43.3-11.85 43.3-9.6L43.3-9.6Q43.3-7.95 42.85-6.2 42.4-4.45 41.55-2.8L41.55-2.8Q41.85-2.75 42.17-2.7 42.5-2.65 42.85-2.65L42.85-2.65Q44.65-2.65 45.85-3.53 47.05-4.4 47.87-5.68 48.7-6.95 49.25-8.1L49.25-8.1 49.85-7.45Q48.45-4 46.52-2.88 44.6-1.75 42.7-1.75L42.7-1.75Q42.3-1.75 41.9-1.8 41.5-1.85 41.1-1.9L41.1-1.9Q39.75 0.4 37.77 2.02 35.8 3.65 33.15 3.65ZM40.1-3.45L40.1-3.45Q40.65-4.6 40.95-5.88 41.25-7.15 41.25-8.5L41.25-8.5Q41.25-10.25 40.77-11.25 40.3-12.25 39.6-12.25L39.6-12.25Q38.85-12.25 38.27-11.23 37.7-10.2 37.7-8.65L37.7-8.65Q37.7-7.3 38.25-5.8 38.8-4.3 40.1-3.45ZM34.3-15.45L34.3-15.45Q35.7-16.55 37.02-18.25 38.35-19.95 39.5-21.88 40.65-23.8 41.55-25.65 42.45-27.5 42.95-29 43.45-30.5 43.45-31.25L43.45-31.25Q43.45-31.5 43.4-31.58 43.35-31.65 43.25-31.65L43.25-31.65Q42.85-31.65 41.72-30.23 40.6-28.8 39.22-26.43 37.85-24.05 36.5-21.18 35.15-18.3 34.3-15.45Z" opacity="1" transform="matrix(1,0,0,1,0,0)" fill="#ffffff" class="wordmark-text-0" data-fill-palette-color="quaternary" id="text-0"></path></svg></g></svg></g></svg></g></svg></g><g></g></svg></g></svg></g></svg></g></svg></g><defs></defs></svg><rect width="342.85155851775386" height="342.85155851775386" fill="none" stroke="none" visibility="hidden"></rect></g></svg></g></svg>